<?xml version="1.0" encoding="UTF-8" standalone="no"?>
<!-- Created with Inkscape (http://www.inkscape.org/) -->

<svg
   xmlns:dc="http://purl.org/dc/elements/1.1/"
   xmlns:cc="http://creativecommons.org/ns#"
   xmlns:rdf="http://www.w3.org/1999/02/22-rdf-syntax-ns#"
   xmlns:svg="http://www.w3.org/2000/svg"
   xmlns="http://www.w3.org/2000/svg"
   xmlns:sodipodi="http://sodipodi.sourceforge.net/DTD/sodipodi-0.dtd"
   xmlns:inkscape="http://www.inkscape.org/namespaces/inkscape"
   width="340"
   height="250"
   id="svg2"
   version="1.1"
   inkscape:version="0.48.3.1 r9886"
   sodipodi:docname="unitcircle-final.svg">
  <defs
     id="defs4" />
  <sodipodi:namedview
     id="base"
     pagecolor="#ffffff"
     bordercolor="#666666"
     borderopacity="1.0"
     inkscape:pageopacity="0.0"
     inkscape:pageshadow="2"
     inkscape:zoom="2"
     inkscape:cx="152.40163"
     inkscape:cy="175.92065"
     inkscape:document-units="px"
     inkscape:current-layer="layer1"
     showgrid="false"
     showborder="true"
     fit-margin-top="0"
     fit-margin-left="0"
     fit-margin-right="0"
     fit-margin-bottom="0"
     inkscape:window-width="1920"
     inkscape:window-height="1176"
     inkscape:window-x="0"
     inkscape:window-y="24"
     inkscape:window-maximized="1"
     inkscape:object-paths="true"
     inkscape:object-nodes="false"
     inkscape:snap-intersection-paths="true"
     inkscape:snap-global="true"
     showguides="true"
     inkscape:guide-bbox="true"
     inkscape:snap-object-midpoints="true"
     inkscape:snap-nodes="true"
     inkscape:snap-bbox="false">
    <inkscape:grid
       type="xygrid"
       id="grid2987"
       empspacing="10"
       visible="true"
       enabled="true"
       snapvisiblegridlinesonly="true"
       spacingx="1px"
       spacingy="1px"
       originx="120px"
       originy="-80px" />
  </sodipodi:namedview>
  <metadata
     id="metadata7">
    <rdf:RDF>
      <cc:Work
         rdf:about="">
        <dc:format>image/svg+xml</dc:format>
        <dc:type
           rdf:resource="http://purl.org/dc/dcmitype/StillImage" />
        <dc:title />
      </cc:Work>
    </rdf:RDF>
  </metadata>
  <g
     inkscape:label="Layer 1"
     inkscape:groupmode="layer"
     id="layer1"
     transform="translate(220.5,229.5)">
    <rect
       style="fill:none;stroke:#858585;stroke-width:0.5;stroke-linecap:butt;stroke-linejoin:miter;stroke-miterlimit:4;stroke-opacity:1;stroke-dasharray:none;stroke-dashoffset:0"
       id="rtangle1"
       width="10"
       height="10"
       x="-111"
       y="-99" />
    <path
       style="fill:none;stroke:#000000;stroke-width:0.5;stroke-linecap:butt;stroke-linejoin:miter;stroke-miterlimit:4;stroke-opacity:0.41450782;stroke-dasharray:none"
       d="m -261,-99 410,0"
       id="path3769"
       inkscape:connector-curvature="0"
       sodipodi:nodetypes="cc" />
    <path
       style="fill:none;stroke:#000000;stroke-width:0.5;stroke-linecap:butt;stroke-linejoin:miter;stroke-miterlimit:4;stroke-opacity:0.41450782;stroke-dasharray:none"
       d="m -101,-259 0,320"
       id="path3771"
       inkscape:connector-curvature="0" />
    <path
       transform="translate(-101,-99)"
       d="M 100,0 C 100,55.228475 55.228475,100 0,100 -55.228475,100 -100,55.228475 -100,0 c 0,-55.228475 44.771525,-100 100,-100 55.228475,0 100,44.771525 100,100 z"
       sodipodi:ry="100"
       sodipodi:rx="100"
       sodipodi:cy="0"
       sodipodi:cx="0"
       id="path3767"
       style="fill:none;stroke:#858585;stroke-width:1;stroke-linecap:round;stroke-linejoin:round;stroke-miterlimit:4;stroke-opacity:1;stroke-dasharray:none;stroke-dashoffset:0"
       sodipodi:type="arc" />
    <path
       id="path3872"
       style="fill:#f400ff;fill-opacity:0.07843137;stroke:none"
       d="m -101,-99 0,-115.47007 50,28.86753 z"
       inkscape:connector-curvature="0"
       sodipodi:nodetypes="cccc" />
    <rect
       y="-146.96857"
       x="125.23652"
       height="10"
       width="10"
       id="rect3902-8"
       style="fill:none;stroke:#bc00b0;stroke-width:0.5;stroke-linecap:butt;stroke-linejoin:miter;stroke-miterlimit:4;stroke-opacity:1;stroke-dasharray:none;stroke-dashoffset:0"
       transform="matrix(0.5,-0.8660254,0.8660254,0.5,0,0)" />
    <path
       sodipodi:open="true"
       sodipodi:end="1.5707963"
       sodipodi:start="0.52359878"
       transform="translate(-101,-99)"
       d="m 8.660254,-110.47007 c -1.7863279,3.09401 -5.0875979,5 -8.66025373205103,5"
       sodipodi:ry="10"
       sodipodi:rx="10"
       sodipodi:cy="-115.47007"
       sodipodi:cx="0"
       id="path3894"
       style="fill:none;stroke:#000000;stroke-width:0.5;stroke-miterlimit:4;stroke-opacity:0.58823529;stroke-dasharray:none"
       sodipodi:type="arc" />
    <path
       id="path3854"
       style="fill:#00d5ff;fill-opacity:0.07843137;stroke:none"
       d="M 98.99993,-99 -51,-185.60254 -101,-99 z"
       inkscape:connector-curvature="0"
       sodipodi:nodetypes="cccc" />
    <rect
       y="-136.96857"
       x="125.23652"
       height="10"
       width="10"
       id="rect3902-8-9"
       style="fill:none;stroke:#00bee4;stroke-width:0.5;stroke-linecap:butt;stroke-linejoin:miter;stroke-miterlimit:4;stroke-opacity:1;stroke-dasharray:none;stroke-dashoffset:0"
       transform="matrix(0.5,-0.8660254,0.8660254,0.5,0,0)" />
    <path
       id="path3802"
       style="fill:#006bff;fill-opacity:0.07843137;stroke:none"
       d="M -51,-185.60254 -51,-99 l -50,0 z"
       inkscape:connector-curvature="0"
       sodipodi:nodetypes="cccc" />
    <rect
       y="-109"
       x="-61"
       height="10"
       width="10"
       id="rect3902"
       style="fill:none;stroke:#5c39ff;stroke-width:0.5;stroke-linecap:butt;stroke-linejoin:miter;stroke-miterlimit:4;stroke-opacity:1;stroke-dasharray:none;stroke-dashoffset:0" />
    <path
       sodipodi:type="arc"
       style="fill:none;stroke:#000000;stroke-width:0.5;stroke-miterlimit:4;stroke-opacity:0.58823529;stroke-dasharray:none"
       id="path3805"
       sodipodi:cx="0"
       sodipodi:cy="0"
       sodipodi:rx="10"
       sodipodi:ry="10"
       d="M 5.0000004,-8.6602538 C 8.0940109,-6.8739258 10,-3.5726558 10,-7.1795861e-8"
       transform="translate(-101,-99)"
       sodipodi:start="5.2359878"
       sodipodi:end="6.2831853"
       sodipodi:open="true" />
    <path
       style="fill:none;stroke:#858585;stroke-width:1px;stroke-linecap:butt;stroke-linejoin:miter;stroke-opacity:1"
       d="m -101,-99 50,-86.60254"
       id="path3792"
       inkscape:connector-curvature="0" />
    <path
       inkscape:connector-curvature="0"
       id="path3794"
       d="m -51,-99 0,-86.60254"
       style="fill:none;stroke:#ff004e;stroke-width:1px;stroke-linecap:butt;stroke-linejoin:miter;stroke-opacity:1"
       sodipodi:nodetypes="cc" />
    <path
       inkscape:connector-curvature="0"
       id="path3858"
       d="M 98.99993,-99 -101,-99"
       style="fill:none;stroke:#00c7ff;stroke-width:1px;stroke-linecap:butt;stroke-linejoin:miter;stroke-opacity:1"
       sodipodi:nodetypes="cc" />
    <path
       sodipodi:nodetypes="cc"
       style="fill:none;stroke:#0092ff;stroke-width:1px;stroke-linecap:butt;stroke-linejoin:miter;stroke-opacity:1"
       d="m -51,-99 -50,0"
       id="path3796"
       inkscape:connector-curvature="0" />
    <path
       inkscape:connector-curvature="0"
       id="path3076"
       d="M 98.99993,-99 -51,-185.60254"
       style="fill:none;stroke:#4dd079;stroke-width:1px;stroke-linecap:butt;stroke-linejoin:miter;stroke-opacity:1"
       sodipodi:nodetypes="cc" />
    <path
       sodipodi:nodetypes="cc"
       inkscape:connector-curvature="0"
       d="m -51,-185.60254 -50,-28.86753"
       style="fill:none;stroke:#4dd0bc;stroke-width:1px;stroke-linecap:butt;stroke-linejoin:miter;stroke-opacity:1"
       id="path3866" />
    <path
       id="path3868"
       style="fill:none;stroke:#ff0098;stroke-width:1px;stroke-linecap:butt;stroke-linejoin:miter;stroke-opacity:1"
       d="m -101,-99 0,-115.47007"
       inkscape:connector-curvature="0"
       sodipodi:nodetypes="cc" />
    <path
       sodipodi:nodetypes="cc"
       style="fill:none;stroke:#00c7ff;stroke-width:0.5;stroke-linecap:butt;stroke-linejoin:miter;stroke-miterlimit:4;stroke-opacity:0.5051546;stroke-dasharray:none"
       d="m 99,-89 -7e-5,3 -199.99993,0 0,-3"
       id="path4032"
       inkscape:connector-curvature="0" />
    <g
       id="g3893">
      <rect
         y="-279.5"
         x="49.5"
         height="30"
         width="50"
         id="rect4117"
         style="fill:#000000;fill-opacity:0.58823529;fill-rule:nonzero;stroke:none" />
      <g
         id="g3859"
         style="opacity:0">
        <text
           xml:space="preserve"
           style="font-size:12px;font-style:italic;font-variant:normal;font-weight:normal;font-stretch:normal;text-align:start;line-height:125%;letter-spacing:0px;word-spacing:0px;writing-mode:lr-tb;text-anchor:start;fill:#000000;fill-opacity:0.58823528999999997;stroke:none;font-family:Frutiger Neue 55;-inkscape-font-specification:Frutiger Neue 55 Italic"
           x="-95.99678"
           y="-213.13994"
           id="text3861"
           sodipodi:linespacing="125%"><tspan
             sodipodi:role="line"
             id="tspan3863"
             x="-95.99678"
             y="-213.13994">θ</tspan></text>
        <text
           xml:space="preserve"
           style="font-size:12px;font-style:italic;font-variant:normal;font-weight:normal;font-stretch:normal;text-align:start;line-height:125%;letter-spacing:0px;word-spacing:0px;writing-mode:lr-tb;text-anchor:start;fill:#000000;fill-opacity:0.58823528999999997;stroke:none;font-family:Frutiger Neue 55;-inkscape-font-specification:Frutiger Neue 55 Italic"
           x="-90.695137"
           y="-103.5951"
           id="text3865"
           sodipodi:linespacing="125%"><tspan
             sodipodi:role="line"
             id="tspan3867"
             x="-90.695137"
             y="-103.5951">θ</tspan></text>
        <text
           xml:space="preserve"
           style="font-size:12px;font-style:normal;font-variant:normal;font-weight:normal;font-stretch:normal;text-align:start;line-height:125%;letter-spacing:0px;word-spacing:0px;writing-mode:lr-tb;text-anchor:start;fill:#4dd079;fill-opacity:1;stroke:none;font-family:Frutiger Neue 55;-inkscape-font-specification:Frutiger Neue 55"
           x="2.5"
           y="-159.5"
           id="text3869"
           sodipodi:linespacing="125%"><tspan
             sodipodi:role="line"
             id="tspan3871"
             x="2.5"
             y="-159.5"
             dx="-0.36000001 0 0 0.2 -0.2 -0.49000001 0.1">tangent</tspan></text>
        <text
           xml:space="preserve"
           style="font-size:12px;font-style:normal;font-variant:normal;font-weight:normal;font-stretch:normal;text-align:start;line-height:125%;letter-spacing:0px;word-spacing:0px;writing-mode:lr-tb;text-anchor:start;fill:#0092ff;fill-opacity:1;stroke:none;font-family:Frutiger Neue 55;-inkscape-font-specification:Frutiger Neue 55"
           x="-97.5"
           y="-89.5"
           id="text3873"
           sodipodi:linespacing="125%"><tspan
             sodipodi:role="line"
             id="tspan3875"
             x="-97.5"
             y="-89.5"
             dy="0 0 0 0 0 0"
             dx="0 0 0 0.090000004 -0.059999999 0">cosine</tspan></text>
        <text
           xml:space="preserve"
           style="font-size:12px;font-style:normal;font-variant:normal;font-weight:normal;font-stretch:normal;text-align:start;line-height:125%;letter-spacing:0px;word-spacing:0px;writing-mode:lr-tb;text-anchor:start;fill:#ff004e;fill-opacity:1;stroke:none;font-family:Frutiger Neue 55;-inkscape-font-specification:Frutiger Neue 55"
           x="-48.5"
           y="-134.5"
           id="text3877"
           sodipodi:linespacing="125%"><tspan
             sodipodi:role="line"
             id="tspan3879"
             x="-48.5"
             y="-134.5"
             dx="0 -0.02 -0.1">sine</tspan></text>
        <text
           xml:space="preserve"
           style="font-size:12px;font-style:normal;font-variant:normal;font-weight:normal;font-stretch:normal;text-align:start;line-height:125%;letter-spacing:0px;word-spacing:0px;writing-mode:lr-tb;text-anchor:start;fill:#00c7ff;fill-opacity:1;stroke:none;font-family:Frutiger Neue 55;-inkscape-font-specification:Frutiger Neue 55"
           x="-43.5"
           y="-76.5"
           id="text3881"
           sodipodi:linespacing="125%"><tspan
             sodipodi:role="line"
             id="tspan3883"
             x="-43.5"
             y="-76.5"
             dx="0 0 0 0 0.31">secant</tspan></text>
        <text
           xml:space="preserve"
           style="font-size:12px;font-style:normal;font-variant:normal;font-weight:normal;font-stretch:normal;text-align:start;line-height:125%;letter-spacing:0px;word-spacing:0px;writing-mode:lr-tb;text-anchor:start;fill:#4dd0bc;fill-opacity:1;stroke:none;font-family:Frutiger Neue 55;-inkscape-font-specification:Frutiger Neue 55"
           x="-82.5"
           y="-209.5"
           id="text3885"
           sodipodi:linespacing="125%"><tspan
             sodipodi:role="line"
             id="tspan3887"
             x="-82.5"
             y="-209.5"
             dx="-0.23 0 -0.11 0.1 0 0.22 0 0.28999999 0.090000004">cotangent</tspan></text>
        <text
           xml:space="preserve"
           style="font-size:12px;font-style:normal;font-variant:normal;font-weight:normal;font-stretch:normal;text-align:start;line-height:125%;letter-spacing:0px;word-spacing:0px;writing-mode:lr-tb;text-anchor:start;fill:#ff0098;fill-opacity:1;stroke:none;font-family:Frutiger Neue 55;-inkscape-font-specification:Frutiger Neue 55"
           x="-154.08284"
           y="-151.5"
           id="text3889"
           sodipodi:linespacing="125%"><tspan
             sodipodi:role="line"
             id="tspan3891"
             x="-154.08284"
             y="-151.49556"
             dx="0 0 0 0 0 0 0 0.090000004">cosecant</tspan></text>
      </g>
    </g>
    <g
       id="g4119"
       style="opacity:1">
      <g
         style="font-size:12px;font-style:italic;font-variant:normal;font-weight:normal;font-stretch:normal;text-align:start;line-height:125%;letter-spacing:0px;word-spacing:0px;writing-mode:lr-tb;text-anchor:start;fill:#000000;fill-opacity:0.58823529;stroke:none;font-family:Frutiger Neue 55;-inkscape-font-specification:Frutiger Neue 55 Italic"
         id="text4121">
        <path
           d="m -90.66878,-219.03194 c -6e-6,-1.11999 -0.380005,-1.67999 -1.14,-1.68 -0.312004,1e-5 -0.596004,0.092 -0.852,0.276 -0.248003,0.17601 -0.472003,0.41201 -0.672,0.708 -0.192003,0.28801 -0.356003,0.61601 -0.492,0.984 -0.088,0.24001 -0.168002,0.48401 -0.24,0.732 l 3.312,0 c 0.008,-0.032 0.01199,-0.064 0.012,-0.096 0.04799,-0.35199 0.07199,-0.65999 0.072,-0.924 m 1.164,-0.036 c -7e-6,0.39201 -0.03201,0.81601 -0.096,1.272 -0.06401,0.44801 -0.164007,0.89601 -0.3,1.344 -0.136006,0.448 -0.308006,0.88 -0.516,1.296 -0.208006,0.416 -0.456006,0.784 -0.744,1.104 -0.280005,0.32 -0.604005,0.576 -0.972,0.768 -0.368004,0.192 -0.776003,0.288 -1.224,0.288 -0.744002,0 -1.308002,-0.24 -1.692,-0.72 -0.384001,-0.48 -0.576001,-1.168 -0.576,-2.064 -10e-7,-0.384 0.032,-0.79599 0.096,-1.236 0.072,-0.43999 0.175999,-0.87599 0.312,-1.308 0.143999,-0.43999 0.319999,-0.85999 0.528,-1.26 0.215998,-0.39999 0.467998,-0.75199 0.756,-1.056 0.287997,-0.31199 0.611997,-0.55999 0.972,-0.744 0.367996,-0.18399 0.771996,-0.27599 1.212,-0.276 0.727995,1e-5 1.283994,0.22801 1.668,0.684 0.383993,0.45601 0.575993,1.09201 0.576,1.908 m -4.788,2.028 c -0.032,0.16801 -0.056,0.33601 -0.072,0.504 -0.04,0.352 -0.06,0.656 -0.06,0.912 -2e-6,0.504 0.084,0.908 0.252,1.212 0.167998,0.304 0.443997,0.456 0.828,0.456 0.311997,0 0.591996,-0.088 0.84,-0.264 0.255996,-0.176 0.483996,-0.408 0.684,-0.696 0.199995,-0.296 0.371995,-0.624 0.516,-0.984 0.143995,-0.368 0.263995,-0.73999 0.36,-1.116 -5e-6,-0.008 0.004,-0.016 0.012,-0.024 l -3.36,0"
           style=""
           id="path3914" />
      </g>
      <g
         style="font-size:12px;font-style:italic;font-variant:normal;font-weight:normal;font-stretch:normal;text-align:start;line-height:125%;letter-spacing:0px;word-spacing:0px;writing-mode:lr-tb;text-anchor:start;fill:#000000;fill-opacity:0.58823529;stroke:none;font-family:Frutiger Neue 55;-inkscape-font-specification:Frutiger Neue 55 Italic"
         id="text4125">
        <path
           d="m -85.367137,-109.4871 c -5e-6,-1.11999 -0.380005,-1.67999 -1.14,-1.68 -0.312004,1e-5 -0.596004,0.092 -0.852,0.276 -0.248003,0.17601 -0.472003,0.41201 -0.672,0.708 -0.192002,0.28801 -0.356002,0.61601 -0.492,0.984 -0.088,0.24 -0.168002,0.484 -0.24,0.732 l 3.312,0 c 0.008,-0.032 0.01199,-0.064 0.012,-0.096 0.048,-0.352 0.072,-0.65999 0.072,-0.924 m 1.164,-0.036 c -7e-6,0.39201 -0.03201,0.816 -0.096,1.272 -0.06401,0.448 -0.164006,0.896 -0.3,1.344 -0.136006,0.448 -0.308006,0.88 -0.516,1.296 -0.208005,0.416 -0.456005,0.784 -0.744,1.104 -0.280005,0.32 -0.604004,0.576 -0.972,0.768 -0.368004,0.192 -0.776003,0.288 -1.224,0.288 -0.744002,0 -1.308001,-0.24 -1.692,-0.72 -0.384001,-0.48 -0.576,-1.168 -0.576,-2.064 0,-0.384 0.032,-0.796 0.096,-1.236 0.072,-0.44 0.175999,-0.876 0.312,-1.308 0.143999,-0.43999 0.319999,-0.85999 0.528,-1.26 0.215998,-0.39999 0.467998,-0.75199 0.756,-1.056 0.287998,-0.31199 0.611997,-0.55999 0.972,-0.744 0.367997,-0.18399 0.771996,-0.27599 1.212,-0.276 0.727995,1e-5 1.283994,0.22801 1.668,0.684 0.383994,0.45601 0.575993,1.09201 0.576,1.908 m -4.788,2.028 c -0.032,0.168 -0.056,0.336 -0.072,0.504 -0.04,0.352 -0.06,0.656 -0.06,0.912 -2e-6,0.504 0.084,0.908 0.252,1.212 0.167998,0.304 0.443998,0.456 0.828,0.456 0.311997,0 0.591997,-0.088 0.84,-0.264 0.255996,-0.176 0.483996,-0.408 0.684,-0.696 0.199996,-0.296 0.371995,-0.624 0.516,-0.984 0.143995,-0.368 0.263995,-0.74 0.36,-1.116 -5e-6,-0.008 0.004,-0.016 0.012,-0.024 l -3.36,0"
           style=""
           id="path3917" />
      </g>
      <g
         style="font-size:12px;font-style:normal;font-variant:normal;font-weight:normal;font-stretch:normal;text-align:start;line-height:125%;letter-spacing:0px;word-spacing:0px;writing-mode:lr-tb;text-anchor:start;fill:#4dd079;fill-opacity:1;stroke:none;font-family:Frutiger Neue 55;-inkscape-font-specification:Frutiger Neue 55"
         id="text4129">
        <path
           d="m 4.756,-165.584 1.644,0 0,0.9 -1.644,0 0,2.688 c -2.6e-6,0.24 0.011997,0.464 0.036,0.672 0.023997,0.2 0.071997,0.372 0.144,0.516 0.071997,0.144 0.175997,0.256 0.312,0.336 0.1439967,0.08 0.3319965,0.12 0.564,0.12 0.2239961,0 0.4439959,-0.048 0.66,-0.144 l 0.036,0.9 c -0.2880041,0.112 -0.6120038,0.168 -0.972,0.168 -0.384003,0 -0.7000027,-0.056 -0.948,-0.168 -0.2480022,-0.112 -0.444002,-0.268 -0.588,-0.468 -0.1440017,-0.2 -0.2440016,-0.436 -0.3,-0.708 -0.048002,-0.28 -0.072002,-0.584 -0.072,-0.912 l 0,-3 -1.404,0 0,-0.9 1.404,0 0,-1.44 1.128,-0.384 0,1.824"
           style=""
           id="path3920" />
        <path
           d="m 8.0166249,-165.248 c 0.2879984,-0.17599 0.6079981,-0.30399 0.96,-0.384 0.3599974,-0.088 0.7199971,-0.13199 1.0800001,-0.132 0.447996,1e-5 0.827996,0.064 1.14,0.192 0.311995,0.12001 0.563995,0.28801 0.756,0.504 0.199994,0.21601 0.343994,0.47201 0.432,0.768 0.08799,0.296 0.131994,0.616 0.132,0.96 -6e-6,0.192 -0.004,0.392 -0.012,0.6 -6e-6,0.208 -6e-6,0.408 0,0.6 -6e-6,0.184 -0.004,0.348 -0.012,0.492 -6e-6,0.136 -6e-6,0.236 0,0.3 -6e-6,0.336 0.004,0.672 0.012,1.008 0.01599,0.336 0.03599,0.616 0.06,0.84 l -1.02,0 c -0.008,-0.048 -0.016,-0.12 -0.024,-0.216 -5e-6,-0.104 -5e-6,-0.2 0,-0.288 -5e-6,-0.08 -5e-6,-0.168 0,-0.264 0.008,-0.096 0.01599,-0.188 0.024,-0.276 l -0.024,0 c -0.208005,0.368 -0.480004,0.648 -0.816,0.84 -0.336004,0.192 -0.7440033,0.288 -1.2240001,0.288 -0.6480021,0 -1.1680016,-0.164 -1.56,-0.492 -0.3840008,-0.336 -0.5760006,-0.788 -0.576,-1.356 -6e-7,-0.64 0.2759991,-1.132 0.828,-1.476 0.551998,-0.344 1.3479972,-0.516 2.3880001,-0.516 0.127996,0 0.267996,0.004 0.42,0.012 0.159996,0 0.307995,0.008 0.444,0.024 l 0,-0.048 c -5e-6,-1.04 -0.520004,-1.55999 -1.5600001,-1.56 -0.3120028,1e-5 -0.6240025,0.056 -0.936,0.168 -0.3120019,0.10401 -0.5920016,0.244 -0.84,0.42 l -0.072,-1.008 m 3.4200001,2.832 c -0.064,-0.008 -0.152005,-0.012 -0.264,-0.012 -0.104004,-0.008 -0.224004,-0.012 -0.36,-0.012 -0.760003,0 -1.3280028,0.096 -1.7040001,0.288 -0.368002,0.184 -0.5520018,0.48 -0.552,0.888 -1.8e-6,0.304 0.1039981,0.54 0.312,0.708 0.2159977,0.168 0.4999974,0.252 0.852,0.252 0.3439971,0 0.6479961,-0.08 0.9120001,-0.24 0.271996,-0.16 0.475996,-0.38 0.612,-0.66 0.127995,-0.264 0.191995,-0.668 0.192,-1.212"
           style=""
           id="path3922" />
        <path
           d="m 15.655188,-164.636 c 0.231997,-0.35199 0.515997,-0.62799 0.852,-0.828 0.343996,-0.19999 0.739996,-0.29999 1.188,-0.3 0.431995,1e-5 0.791995,0.068 1.08,0.204 0.295994,0.13601 0.531994,0.32801 0.708,0.576 0.175994,0.24001 0.299994,0.528 0.372,0.864 0.07999,0.336 0.119993,0.708 0.12,1.116 l 0,3.504 -1.14,0 0,-3.024 c -5e-6,-0.296 -0.016,-0.584 -0.048,-0.864 -0.024,-0.28 -0.08401,-0.524 -0.18,-0.732 -0.09601,-0.208 -0.240005,-0.376 -0.432,-0.504 -0.184005,-0.12799 -0.436004,-0.19199 -0.756,-0.192 -0.304004,1e-5 -0.584003,0.08 -0.84,0.24 -0.256003,0.16 -0.464003,0.372 -0.624,0.636 -0.096,0.168 -0.168002,0.372 -0.216,0.612 -0.048,0.24 -0.072,0.54 -0.072,0.9 l 0,2.928 -1.14,0 0,-4.308 c -1e-6,-0.328 -0.004,-0.648 -0.012,-0.96 -0.008,-0.31199 -0.024,-0.59599 -0.048,-0.852 l 1.116,0 c 0.016,0.13601 0.028,0.29601 0.036,0.48 0.008,0.17601 0.012,0.34401 0.012,0.504 l 0.024,0"
           style=""
           id="path3924" />
        <path
           d="m 24.616875,-164.816 c -0.240003,1e-5 -0.464003,0.056 -0.672,0.168 -0.208002,0.11201 -0.388002,0.268 -0.54,0.468 -0.152002,0.2 -0.272002,0.44 -0.36,0.72 -0.08,0.272 -0.120002,0.568 -0.12,0.888 -2e-6,0.32 0.04,0.612 0.12,0.876 0.08,0.264 0.191998,0.492 0.336,0.684 0.151998,0.184 0.331998,0.328 0.54,0.432 0.207997,0.104 0.439997,0.156 0.696,0.156 0.255996,0 0.491996,-0.056 0.708,-0.168 0.215996,-0.112 0.403996,-0.264 0.564,-0.456 0.159995,-0.192 0.283995,-0.42 0.372,-0.684 0.088,-0.272 0.131995,-0.564 0.132,-0.876 -5e-6,-0.312 -0.044,-0.6 -0.132,-0.864 -0.088,-0.272 -0.212005,-0.508 -0.372,-0.708 -0.160004,-0.2 -0.348004,-0.35599 -0.564,-0.468 -0.216004,-0.11199 -0.452004,-0.16799 -0.708,-0.168 m 2.892,-0.804 0,5.868 c -6e-6,0.376 -0.05201,0.736 -0.156,1.08 -0.09601,0.352 -0.260006,0.664 -0.492,0.936 -0.232005,0.272 -0.540005,0.488 -0.924,0.648 -0.384004,0.168 -0.856004,0.252 -1.416,0.252 -0.424003,0 -0.820002,-0.032 -1.188,-0.096 -0.360002,-0.056 -0.744001,-0.16 -1.152,-0.312 l 0.12,-1.128 c 0.383999,0.208 0.747998,0.356 1.092,0.444 0.343998,0.088 0.707997,0.132 1.092,0.132 0.671996,0 1.159996,-0.184 1.464,-0.552 0.303995,-0.368 0.455995,-0.876 0.456,-1.524 -5e-6,-0.104 -5e-6,-0.224 0,-0.36 -5e-6,-0.144 0.008,-0.272 0.024,-0.384 l -0.024,0 c -0.184005,0.312 -0.440005,0.576 -0.768,0.792 -0.328004,0.216 -0.736004,0.324 -1.224,0.324 -0.400003,0 -0.768002,-0.072 -1.104,-0.216 -0.328002,-0.144 -0.612001,-0.348 -0.852,-0.612 -0.240001,-0.272 -0.428001,-0.592 -0.564,-0.96 -0.128,-0.376 -0.192,-0.792 -0.192,-1.248 0,-0.48 0.068,-0.916 0.204,-1.308 0.135999,-0.4 0.323999,-0.73999 0.564,-1.02 0.247999,-0.28799 0.543998,-0.50799 0.888,-0.66 0.343998,-0.15999 0.723997,-0.23999 1.14,-0.24 0.455996,1e-5 0.847996,0.096 1.176,0.288 0.335995,0.18401 0.595995,0.44401 0.78,0.78 l 0.024,0 c -0.016,-0.19199 -0.024,-0.35199 -0.024,-0.48 -5e-6,-0.13599 -5e-6,-0.28399 0,-0.444 l 1.056,0"
           style=""
           id="path3926" />
        <path
           d="m 30.035687,-162.284 c 0.024,0.624 0.227998,1.108 0.612,1.452 0.383997,0.344 0.887997,0.516 1.512,0.516 0.359996,0 0.675995,-0.04 0.948,-0.12 0.279995,-0.08 0.559995,-0.192 0.84,-0.336 l 0.036,1.044 c -0.544005,0.248 -1.176005,0.372 -1.896,0.372 -0.512003,0 -0.968003,-0.072 -1.368,-0.216 -0.392002,-0.152 -0.724002,-0.368 -0.996,-0.648 -0.272001,-0.288 -0.480001,-0.632 -0.624,-1.032 -0.144001,-0.4 -0.216001,-0.852 -0.216,-1.356 -10e-7,-0.48 0.068,-0.916 0.204,-1.308 0.143999,-0.392 0.343999,-0.72399 0.6,-0.996 0.255998,-0.27199 0.563998,-0.47999 0.924,-0.624 0.359997,-0.15199 0.755997,-0.22799 1.188,-0.228 0.399996,1e-5 0.759996,0.064 1.08,0.192 0.327995,0.12001 0.603995,0.30401 0.828,0.552 0.231994,0.24801 0.407994,0.564 0.528,0.948 0.127994,0.384 0.191994,0.832 0.192,1.344 -6e-6,0.064 -0.004,0.14 -0.012,0.228 -6e-6,0.08 -0.004,0.152 -0.012,0.216 l -4.368,0 m 3.276,-0.876 c -5e-6,-0.592 -0.144005,-1.028 -0.432,-1.308 -0.288004,-0.28799 -0.660004,-0.43199 -1.116,-0.432 -0.456003,1e-5 -0.844003,0.15201 -1.164,0.456 -0.312002,0.304 -0.492002,0.732 -0.54,1.284 l 3.252,0"
           style=""
           id="path3928" />
        <path
           d="m 36.657377,-164.636 c 0.231997,-0.35199 0.515997,-0.62799 0.852,-0.828 0.343996,-0.19999 0.739996,-0.29999 1.188,-0.3 0.431995,1e-5 0.791995,0.068 1.08,0.204 0.295994,0.13601 0.531994,0.32801 0.708,0.576 0.175993,0.24001 0.299993,0.528 0.372,0.864 0.07999,0.336 0.119993,0.708 0.12,1.116 l 0,3.504 -1.14,0 0,-3.024 c -6e-6,-0.296 -0.01601,-0.584 -0.048,-0.864 -0.02401,-0.28 -0.08401,-0.524 -0.18,-0.732 -0.09601,-0.208 -0.240005,-0.376 -0.432,-0.504 -0.184005,-0.12799 -0.436005,-0.19199 -0.756,-0.192 -0.304004,1e-5 -0.584004,0.08 -0.84,0.24 -0.256003,0.16 -0.464003,0.372 -0.624,0.636 -0.096,0.168 -0.168003,0.372 -0.216,0.612 -0.048,0.24 -0.072,0.54 -0.072,0.9 l 0,2.928 -1.14,0 0,-4.308 c -10e-7,-0.328 -0.004,-0.648 -0.012,-0.96 -0.008,-0.31199 -0.024,-0.59599 -0.048,-0.852 l 1.116,0 c 0.016,0.13601 0.028,0.29601 0.036,0.48 0.008,0.17601 0.012,0.34401 0.012,0.504 l 0.024,0"
           style=""
           id="path3930" />
        <path
           d="m 44.655062,-165.584 1.644,0 0,0.9 -1.644,0 0,2.688 c -2e-6,0.24 0.012,0.464 0.036,0.672 0.024,0.2 0.072,0.372 0.144,0.516 0.072,0.144 0.175998,0.256 0.312,0.336 0.143997,0.08 0.331997,0.12 0.564,0.12 0.223997,0 0.443996,-0.048 0.66,-0.144 l 0.036,0.9 c -0.288005,0.112 -0.612004,0.168 -0.972001,0.168 -0.384003,0 -0.700002,-0.056 -0.948,-0.168 -0.248002,-0.112 -0.444002,-0.268 -0.588,-0.468 -0.144001,-0.2 -0.244001,-0.436 -0.299999,-0.708 -0.048,-0.28 -0.072,-0.584 -0.072,-0.912 l 0,-3 -1.403999,0 0,-0.9 1.403999,0 0,-1.44 1.128,-0.384 0,1.824"
           style=""
           id="path3932" />
      </g>
      <g
         style="font-size:12px;font-style:normal;font-variant:normal;font-weight:normal;font-stretch:normal;text-align:start;line-height:125%;letter-spacing:0px;word-spacing:0px;writing-mode:lr-tb;text-anchor:start;fill:#0092ff;fill-opacity:1;stroke:none;font-family:Frutiger Neue 55;-inkscape-font-specification:Frutiger Neue 55"
         id="text4133">
        <path
           d="m -92.52,-94.468 c -0.184005,-0.08799 -0.368005,-0.151995 -0.552,-0.192 -0.184004,-0.04 -0.380004,-0.06 -0.588,-0.06 -0.304004,5e-6 -0.584003,0.052 -0.84,0.156 -0.256003,0.104005 -0.476003,0.248005 -0.66,0.432 -0.176002,0.184004 -0.316002,0.408004 -0.42,0.672 -0.096,0.256004 -0.144002,0.544003 -0.144,0.864 -2e-6,0.328003 0.048,0.628002 0.144,0.9 0.103998,0.264002 0.243998,0.492002 0.42,0.684 0.183997,0.192001 0.399997,0.344001 0.648,0.456 0.247997,0.104001 0.523996,0.156001 0.828,0.156 0.223996,1e-6 0.431996,-0.02 0.624,-0.06 0.199995,-0.048 0.415995,-0.127999 0.648,-0.24 l 0.096,1.02 c -0.216005,0.088 -0.452005,0.152 -0.708,0.192 -0.256004,0.048 -0.520004,0.072 -0.792,0.072 -0.472003,0 -0.900003,-0.076 -1.284,-0.228 -0.376002,-0.152 -0.704002,-0.363999 -0.984,-0.636 -0.272001,-0.279999 -0.484001,-0.611999 -0.636,-0.996 -0.144001,-0.383998 -0.216001,-0.811997 -0.216,-1.284 -10e-7,-0.455996 0.076,-0.875996 0.228,-1.26 0.151999,-0.391995 0.363999,-0.723995 0.636,-0.996 0.279998,-0.279994 0.615998,-0.495994 1.008,-0.648 0.399997,-0.159994 0.839997,-0.239994 1.32,-0.24 0.231996,6e-6 0.451996,0.01601 0.66,0.048 0.215995,0.03201 0.427995,0.09201 0.636,0.18 l -0.072,1.008"
           style=""
           id="path3935" />
        <path
           d="m -88.295062,-95.764 c 0.455995,6e-6 0.871995,0.08001 1.248,0.24 0.383994,0.160006 0.711994,0.384006 0.984,0.672 0.279993,0.288005 0.495993,0.632005 0.647999,1.032 0.151994,0.392004 0.227994,0.824003 0.228001,1.296 -7e-6,0.472003 -0.08001,0.904002 -0.240001,1.296 -0.152006,0.384001 -0.368006,0.716001 -0.648,0.996 -0.272005,0.272 -0.600005,0.488 -0.983999,0.648 -0.384005,0.152 -0.808005,0.228 -1.272001,0.228 -0.456003,0 -0.876002,-0.076 -1.259999,-0.228 -0.384003,-0.16 -0.716002,-0.38 -0.996001,-0.66 -0.280001,-0.279999 -0.5,-0.611999 -0.659999,-0.996 -0.152001,-0.391998 -0.228001,-0.819997 -0.228001,-1.284 0,-0.479996 0.076,-0.915996 0.228001,-1.308 0.159999,-0.399995 0.379998,-0.743995 0.659999,-1.032 0.279999,-0.287994 0.611998,-0.507994 0.996001,-0.66 0.391997,-0.159994 0.823996,-0.239994 1.296,-0.24 m -0.048,0.948 c -0.280003,5e-6 -0.540003,0.056 -0.78,0.168 -0.232002,0.112005 -0.432002,0.268005 -0.599999,0.468 -0.168003,0.200004 -0.300003,0.444004 -0.396,0.732 -0.096,0.280004 -0.144002,0.588003 -0.144001,0.924 -10e-7,0.336003 0.048,0.640002 0.144001,0.912 0.096,0.272002 0.227997,0.508002 0.396,0.708 0.175997,0.192001 0.383997,0.340001 0.623999,0.444 0.239997,0.104001 0.503997,0.156001 0.792001,0.156 0.279995,10e-7 0.535995,-0.052 0.768,-0.156 0.239995,-0.111999 0.443995,-0.263999 0.611999,-0.456 0.175995,-0.191998 0.311995,-0.423998 0.408,-0.696 0.096,-0.271998 0.143995,-0.575997 0.144001,-0.912 -6e-6,-0.343997 -0.04801,-0.655996 -0.144001,-0.936 -0.096,-0.279996 -0.232005,-0.519996 -0.408,-0.72 -0.176004,-0.199995 -0.384004,-0.355995 -0.623999,-0.468 -0.240005,-0.111995 -0.504004,-0.167995 -0.792001,-0.168"
           style=""
           id="path3937" />
        <path
           d="m -84.080812,-90.676 c 0.231999,0.136001 0.471998,0.236001 0.72,0.3 0.255998,0.064 0.511998,0.096 0.768,0.096 0.335997,10e-7 0.611997,-0.072 0.827999,-0.216 0.215997,-0.151999 0.323997,-0.359999 0.324001,-0.624 -4e-6,-0.119998 -0.024,-0.223998 -0.072,-0.312 -0.04,-0.096 -0.112004,-0.187998 -0.216001,-0.276 -0.096,-0.088 -0.224002,-0.175998 -0.384,-0.264 -0.160002,-0.096 -0.360002,-0.199997 -0.599999,-0.312 -0.256002,-0.119997 -0.472002,-0.239997 -0.648,-0.36 -0.176002,-0.119997 -0.320001,-0.247997 -0.432,-0.384 -0.112001,-0.135996 -0.196001,-0.279996 -0.252001,-0.432 -0.048,-0.159996 -0.072,-0.335996 -0.072,-0.528 -10e-7,-0.271995 0.052,-0.515995 0.155999,-0.732 0.104,-0.223995 0.252,-0.411994 0.444001,-0.564 0.191998,-0.159994 0.415998,-0.279994 0.671999,-0.36 0.263998,-0.07999 0.551998,-0.119994 0.864001,-0.12 0.263997,6e-6 0.519996,0.02401 0.768,0.072 0.247996,0.04001 0.463996,0.100006 0.647999,0.18 l -0.096,0.948 c -0.224003,-0.111995 -0.444003,-0.187995 -0.66,-0.228 -0.208003,-0.048 -0.424002,-0.072 -0.647999,-0.072 -0.280003,5e-6 -0.520003,0.068 -0.72,0.204 -0.192002,0.128005 -0.288002,0.320005 -0.288,0.576 -2e-6,0.248004 0.088,0.444004 0.264,0.588 0.183997,0.136004 0.471997,0.288004 0.864,0.456 0.567996,0.248003 0.967996,0.516003 1.199999,0.804 0.231996,0.280002 0.347996,0.620002 0.348,1.02 -4e-6,0.304001 -0.056,0.572001 -0.167999,0.804 -0.104005,0.232001 -0.256004,0.428 -0.456001,0.588 -0.192003,0.152 -0.424003,0.268 -0.695999,0.348 -0.272003,0.08 -0.568003,0.12 -0.888001,0.12 -0.312001,0 -0.604001,-0.024 -0.875999,-0.072 -0.264001,-0.048 -0.524001,-0.124 -0.78,-0.228 l 0.084,-1.02"
           style=""
           id="path3939" />
        <path
           d="m -77.434687,-96.724 -1.272,0 0,-1.26 1.272,0 0,1.26 m -0.06,7.224 -1.152,0 0,-6.12 1.152,0 0,6.12"
           style=""
           id="path3941" />
        <path
           d="m -74.345437,-94.636 c 0.231998,-0.351995 0.515998,-0.627994 0.852,-0.828 0.343997,-0.199994 0.739996,-0.299994 1.188,-0.3 0.431996,6e-6 0.791995,0.06801 1.08,0.204 0.295995,0.136006 0.531994,0.328006 0.708,0.576 0.175994,0.240005 0.299994,0.528005 0.372,0.864 0.07999,0.336004 0.119994,0.708004 0.12,1.116 l 0,3.504 -1.14,0 0,-3.024 c -5e-6,-0.295997 -0.01601,-0.583996 -0.048,-0.864 -0.02401,-0.279996 -0.08401,-0.523996 -0.18,-0.732 -0.096,-0.207995 -0.240005,-0.375995 -0.432,-0.504 -0.184004,-0.127995 -0.436004,-0.191995 -0.756,-0.192 -0.304003,5e-6 -0.584003,0.08 -0.84,0.24 -0.256003,0.160005 -0.464002,0.372005 -0.624,0.636 -0.096,0.168004 -0.168002,0.372004 -0.216,0.612 -0.048,0.240004 -0.072,0.540003 -0.072,0.9 l 0,2.928 -1.14,0 0,-4.308 c -10e-7,-0.327995 -0.004,-0.647995 -0.012,-0.96 -0.008,-0.311994 -0.024,-0.595994 -0.048,-0.852 l 1.116,0 c 0.016,0.136006 0.028,0.296006 0.036,0.48 0.008,0.176005 0.012,0.344005 0.012,0.504 l 0.024,0"
           style=""
           id="path3943" />
        <path
           d="m -67.347749,-92.284 c 0.024,0.624002 0.227998,1.108002 0.612,1.452 0.383997,0.344001 0.887996,0.516001 1.512,0.516 0.359995,10e-7 0.675995,-0.04 0.948,-0.12 0.279995,-0.08 0.559994,-0.191999 0.84,-0.336 l 0.036,1.044 c -0.544005,0.248 -1.176005,0.372 -1.896,0.372 -0.512004,0 -0.968003,-0.072 -1.368,-0.216 -0.392002,-0.152 -0.724002,-0.368 -0.996,-0.648 -0.272001,-0.287999 -0.480001,-0.631999 -0.624,-1.032 -0.144001,-0.399998 -0.216001,-0.851997 -0.216,-1.356 -1e-6,-0.479996 0.068,-0.915996 0.204,-1.308 0.143999,-0.391995 0.343999,-0.723995 0.6,-0.996 0.255998,-0.271994 0.563998,-0.479994 0.924,-0.624 0.359997,-0.151994 0.755997,-0.227994 1.188,-0.228 0.399996,6e-6 0.759995,0.06401 1.08,0.192 0.327995,0.120006 0.603995,0.304006 0.828,0.552 0.231994,0.248005 0.407994,0.564005 0.528,0.948 0.127994,0.384004 0.191994,0.832004 0.192,1.344 -6e-6,0.064 -0.004,0.140003 -0.012,0.228 -6e-6,0.08 -0.004,0.152003 -0.012,0.216 l -4.368,0 m 3.276,-0.876 c -5e-6,-0.591996 -0.144005,-1.027995 -0.432,-1.308 -0.288005,-0.287995 -0.660004,-0.431995 -1.116,-0.432 -0.456003,5e-6 -0.844003,0.152005 -1.164,0.456 -0.312002,0.304005 -0.492002,0.732004 -0.54,1.284 l 3.252,0"
           style=""
           id="path3945" />
      </g>
      <g
         style="font-size:12px;font-style:normal;font-variant:normal;font-weight:normal;font-stretch:normal;text-align:start;line-height:125%;letter-spacing:0px;word-spacing:0px;writing-mode:lr-tb;text-anchor:start;fill:#ff004e;fill-opacity:1;stroke:none;font-family:Frutiger Neue 55;-inkscape-font-specification:Frutiger Neue 55"
         id="text4137">
        <path
           d="m -47.948,-135.676 c 0.231999,0.136 0.471999,0.236 0.72,0.3 0.255998,0.064 0.511998,0.096 0.768,0.096 0.335998,0 0.611997,-0.072 0.828,-0.216 0.215997,-0.152 0.323997,-0.36 0.324,-0.624 -3e-6,-0.12 -0.024,-0.224 -0.072,-0.312 -0.04,-0.096 -0.112003,-0.188 -0.216,-0.276 -0.096,-0.088 -0.224003,-0.176 -0.384,-0.264 -0.160002,-0.096 -0.360002,-0.2 -0.6,-0.312 -0.256002,-0.12 -0.472001,-0.24 -0.648,-0.36 -0.176001,-0.12 -0.320001,-0.248 -0.432,-0.384 -0.112001,-0.136 -0.196001,-0.28 -0.252,-0.432 -0.048,-0.16 -0.072,-0.336 -0.072,-0.528 -10e-7,-0.272 0.052,-0.51599 0.156,-0.732 0.103999,-0.22399 0.251999,-0.41199 0.444,-0.564 0.191999,-0.15999 0.415998,-0.27999 0.672,-0.36 0.263998,-0.08 0.551998,-0.11999 0.864,-0.12 0.263997,1e-5 0.519997,0.024 0.768,0.072 0.247996,0.04 0.463996,0.10001 0.648,0.18 l -0.096,0.948 c -0.224004,-0.11199 -0.444004,-0.18799 -0.66,-0.228 -0.208003,-0.048 -0.424003,-0.072 -0.648,-0.072 -0.280002,1e-5 -0.520002,0.068 -0.72,0.204 -0.192002,0.12801 -0.288002,0.32 -0.288,0.576 -2e-6,0.248 0.088,0.444 0.264,0.588 0.183998,0.136 0.471998,0.288 0.864,0.456 0.567997,0.248 0.967996,0.516 1.2,0.804 0.231996,0.28 0.347996,0.62 0.348,1.02 -4e-6,0.304 -0.056,0.572 -0.168,0.804 -0.104004,0.232 -0.256004,0.428 -0.456,0.588 -0.192004,0.152 -0.424003,0.268 -0.696,0.348 -0.272003,0.08 -0.568002,0.12 -0.888,0.12 -0.312002,0 -0.604002,-0.024 -0.876,-0.072 -0.264001,-0.048 -0.524001,-0.124 -0.78,-0.228 l 0.084,-1.02"
           style=""
           id="path3948" />
        <path
           d="m -41.411875,-141.724 -1.272,0 0,-1.26 1.272,0 0,1.26 m -0.06,7.224 -1.152,0 0,-6.12 1.152,0 0,6.12"
           style=""
           id="path3950" />
        <path
           d="m -38.362625,-139.636 c 0.231998,-0.35199 0.515997,-0.62799 0.852,-0.828 0.343997,-0.19999 0.739996,-0.29999 1.188,-0.3 0.431995,1e-5 0.791995,0.068 1.08,0.204 0.295995,0.13601 0.531994,0.32801 0.708,0.576 0.175994,0.24001 0.299994,0.528 0.372,0.864 0.07999,0.336 0.119994,0.708 0.12,1.116 l 0,3.504 -1.14,0 0,-3.024 c -5e-6,-0.296 -0.016,-0.584 -0.048,-0.864 -0.024,-0.28 -0.084,-0.524 -0.18,-0.732 -0.096,-0.208 -0.240005,-0.376 -0.432,-0.504 -0.184004,-0.12799 -0.436004,-0.19199 -0.756,-0.192 -0.304003,1e-5 -0.584003,0.08 -0.84,0.24 -0.256003,0.16 -0.464002,0.372 -0.624,0.636 -0.096,0.168 -0.168002,0.372 -0.216,0.612 -0.048,0.24 -0.072,0.54 -0.072,0.9 l 0,2.928 -1.14,0 0,-4.308 c -10e-7,-0.328 -0.004,-0.648 -0.012,-0.96 -0.008,-0.31199 -0.024,-0.59599 -0.048,-0.852 l 1.116,0 c 0.016,0.13601 0.028,0.29601 0.036,0.48 0.008,0.17601 0.012,0.34401 0.012,0.504 l 0.024,0"
           style=""
           id="path3952" />
        <path
           d="m -31.364937,-137.284 c 0.024,0.624 0.227998,1.108 0.612,1.452 0.383997,0.344 0.887996,0.516 1.512,0.516 0.359995,0 0.675995,-0.04 0.948,-0.12 0.279995,-0.08 0.559994,-0.192 0.84,-0.336 l 0.036,1.044 c -0.544006,0.248 -1.176005,0.372 -1.896,0.372 -0.512004,0 -0.968003,-0.072 -1.368,-0.216 -0.392002,-0.152 -0.724002,-0.368 -0.996,-0.648 -0.272002,-0.288 -0.480001,-0.632 -0.624,-1.032 -0.144001,-0.4 -0.216001,-0.852 -0.216,-1.356 -1e-6,-0.48 0.068,-0.916 0.204,-1.308 0.143999,-0.392 0.343999,-0.72399 0.6,-0.996 0.255998,-0.27199 0.563998,-0.47999 0.924,-0.624 0.359997,-0.15199 0.755997,-0.22799 1.188,-0.228 0.399996,1e-5 0.759995,0.064 1.08,0.192 0.327995,0.12001 0.603994,0.30401 0.828,0.552 0.231994,0.24801 0.407994,0.564 0.528,0.948 0.127994,0.384 0.191994,0.832 0.192,1.344 -6e-6,0.064 -0.004,0.14 -0.012,0.228 -6e-6,0.08 -0.004,0.152 -0.012,0.216 l -4.368,0 m 3.276,-0.876 c -5e-6,-0.592 -0.144005,-1.028 -0.432,-1.308 -0.288005,-0.28799 -0.660004,-0.43199 -1.116,-0.432 -0.456003,1e-5 -0.844003,0.15201 -1.164,0.456 -0.312002,0.304 -0.492002,0.732 -0.54,1.284 l 3.252,0"
           style=""
           id="path3954" />
      </g>
      <g
         style="font-size:12px;font-style:normal;font-variant:normal;font-weight:normal;font-stretch:normal;text-align:start;line-height:125%;letter-spacing:0px;word-spacing:0px;writing-mode:lr-tb;text-anchor:start;fill:#00c7ff;fill-opacity:1;stroke:none;font-family:Frutiger Neue 55;-inkscape-font-specification:Frutiger Neue 55"
         id="text4141">
        <path
           d="m -42.948,-77.676 c 0.231999,0.136001 0.471999,0.236001 0.72,0.3 0.255998,0.064 0.511998,0.096 0.768,0.096 0.335998,10e-7 0.611997,-0.072 0.828,-0.216 0.215997,-0.151999 0.323997,-0.359999 0.324,-0.624 -3e-6,-0.119998 -0.024,-0.223998 -0.072,-0.312 -0.04,-0.096 -0.112003,-0.187998 -0.216,-0.276 -0.096,-0.088 -0.224003,-0.175998 -0.384,-0.264 -0.160002,-0.096 -0.360002,-0.199997 -0.6,-0.312 -0.256002,-0.119997 -0.472001,-0.239997 -0.648,-0.36 -0.176001,-0.119997 -0.320001,-0.247997 -0.432,-0.384 -0.112001,-0.135996 -0.196001,-0.279996 -0.252,-0.432 -0.048,-0.159996 -0.072,-0.335996 -0.072,-0.528 -10e-7,-0.271995 0.052,-0.515995 0.156,-0.732 0.103999,-0.223995 0.251999,-0.411994 0.444,-0.564 0.191999,-0.159994 0.415998,-0.279994 0.672,-0.36 0.263998,-0.07999 0.551998,-0.119994 0.864,-0.12 0.263997,6e-6 0.519997,0.02401 0.768,0.072 0.247996,0.04001 0.463996,0.100006 0.648,0.18 l -0.096,0.948 c -0.224004,-0.111995 -0.444004,-0.187995 -0.66,-0.228 -0.208003,-0.048 -0.424003,-0.072 -0.648,-0.072 -0.280002,5e-6 -0.520002,0.068 -0.72,0.204 -0.192002,0.128005 -0.288002,0.320005 -0.288,0.576 -2e-6,0.248004 0.088,0.444004 0.264,0.588 0.183998,0.136004 0.471998,0.288004 0.864,0.456 0.567997,0.248003 0.967996,0.516003 1.2,0.804 0.231996,0.280002 0.347996,0.620002 0.348,1.02 -4e-6,0.304001 -0.056,0.572001 -0.168,0.804 -0.104004,0.232001 -0.256004,0.428 -0.456,0.588 -0.192004,0.152 -0.424003,0.268 -0.696,0.348 -0.272003,0.08 -0.568002,0.12 -0.888,0.12 -0.312002,0 -0.604002,-0.024 -0.876,-0.072 -0.264001,-0.048 -0.524001,-0.124 -0.78,-0.228 l 0.084,-1.02"
           style=""
           id="path3957" />
        <path
           d="m -36.955875,-79.284 c 0.024,0.624002 0.227998,1.108002 0.612,1.452 0.383997,0.344001 0.887997,0.516001 1.512,0.516 0.359996,10e-7 0.675995,-0.04 0.948,-0.12 0.279995,-0.08 0.559995,-0.191999 0.84,-0.336 l 0.036,1.044 c -0.544005,0.248 -1.176004,0.372 -1.896,0.372 -0.512003,0 -0.968003,-0.072 -1.368,-0.216 -0.392002,-0.152 -0.724002,-0.368 -0.996,-0.648 -0.272001,-0.287999 -0.480001,-0.631999 -0.624,-1.032 -0.144001,-0.399998 -0.216001,-0.851997 -0.216,-1.356 -10e-7,-0.479996 0.068,-0.915996 0.204,-1.308 0.143999,-0.391995 0.343999,-0.723995 0.6,-0.996 0.255998,-0.271994 0.563998,-0.479994 0.924,-0.624 0.359997,-0.151994 0.755997,-0.227994 1.188,-0.228 0.399996,6e-6 0.759996,0.06401 1.08,0.192 0.327995,0.120006 0.603995,0.304006 0.828,0.552 0.231994,0.248005 0.407994,0.564005 0.528,0.948 0.127994,0.384004 0.191994,0.832004 0.192,1.344 -6e-6,0.064 -0.004,0.140003 -0.012,0.228 -6e-6,0.08 -0.004,0.152003 -0.012,0.216 l -4.368,0 m 3.276,-0.876 c -5e-6,-0.591996 -0.144005,-1.027995 -0.432,-1.308 -0.288004,-0.287995 -0.660004,-0.431995 -1.116,-0.432 -0.456003,5e-6 -0.844003,0.152005 -1.164,0.456 -0.312002,0.304005 -0.492002,0.732004 -0.54,1.284 l 3.252,0"
           style=""
           id="path3959" />
        <path
           d="m -27.012187,-81.468 c -0.184005,-0.08799 -0.368005,-0.151995 -0.552,-0.192 -0.184005,-0.04 -0.380005,-0.06 -0.588,-0.06 -0.304004,5e-6 -0.584004,0.052 -0.84,0.156 -0.256003,0.104005 -0.476003,0.248005 -0.66,0.432 -0.176003,0.184004 -0.316003,0.408004 -0.42,0.672 -0.096,0.256004 -0.144002,0.544003 -0.144,0.864 -2e-6,0.328003 0.048,0.628002 0.144,0.9 0.103997,0.264002 0.243997,0.492002 0.42,0.684 0.183997,0.192001 0.399997,0.344001 0.648,0.456 0.247996,0.104001 0.523996,0.156001 0.828,0.156 0.223995,1e-6 0.431995,-0.02 0.623999,-0.06 0.199996,-0.048 0.415996,-0.127999 0.648001,-0.24 l 0.096,1.02 c -0.216005,0.088 -0.452005,0.152 -0.708,0.192 -0.256005,0.048 -0.520004,0.072 -0.792,0.072 -0.472004,0 -0.900003,-0.076 -1.284001,-0.228 -0.376002,-0.152 -0.704001,-0.363999 -0.983999,-0.636 -0.272002,-0.279999 -0.484001,-0.611999 -0.636,-0.996 -0.144001,-0.383998 -0.216001,-0.811997 -0.216,-1.284 -10e-7,-0.455996 0.076,-0.875996 0.228,-1.26 0.151999,-0.391995 0.363998,-0.723995 0.636,-0.996 0.279998,-0.279994 0.615997,-0.495994 1.008,-0.648 0.399997,-0.159994 0.839996,-0.239994 1.32,-0.24 0.231996,6e-6 0.451995,0.01601 0.66,0.048 0.215995,0.03201 0.427995,0.09201 0.636,0.18 l -0.072,1.008"
           style=""
           id="path3961" />
        <path
           d="m -25.29525,-82.248 c 0.287998,-0.175994 0.607998,-0.303994 0.96,-0.384 0.359997,-0.08799 0.719997,-0.131994 1.08,-0.132 0.447996,6e-6 0.827996,0.06401 1.14,0.192 0.311995,0.120006 0.563995,0.288006 0.756,0.504 0.199995,0.216005 0.343994,0.472005 0.432,0.768 0.08799,0.296005 0.131994,0.616004 0.132,0.96 -6e-6,0.192004 -0.004,0.392003 -0.012,0.6 -6e-6,0.208003 -6e-6,0.408003 0,0.6 -6e-6,0.184002 -0.004,0.348002 -0.012,0.492 -6e-6,0.136002 -6e-6,0.236002 0,0.3 -6e-6,0.336002 0.004,0.672001 0.012,1.008 0.01599,0.336001 0.03599,0.616 0.06,0.84 l -1.02,0 c -0.008,-0.048 -0.016,-0.12 -0.024,-0.216 -5e-6,-0.104 -5e-6,-0.2 0,-0.288 -5e-6,-0.08 -5e-6,-0.167999 0,-0.264 0.008,-0.096 0.016,-0.187999 0.024,-0.276 l -0.024,0 c -0.208005,0.368001 -0.480004,0.648 -0.816,0.84 -0.336004,0.192 -0.744003,0.288 -1.224,0.288 -0.648002,0 -1.168002,-0.164 -1.56,-0.492 -0.384001,-0.335999 -0.576001,-0.787999 -0.576,-1.356 -1e-6,-0.639998 0.275999,-1.131997 0.828,-1.476 0.551998,-0.343996 1.347997,-0.515996 2.388,-0.516 0.127996,4e-6 0.267996,0.004 0.42,0.012 0.159996,4e-6 0.307995,0.008 0.444,0.024 l 0,-0.048 c -5e-6,-1.039995 -0.520004,-1.559995 -1.56,-1.56 -0.312003,5e-6 -0.624002,0.056 -0.936,0.168 -0.312002,0.104005 -0.592002,0.244005 -0.84,0.42 l -0.072,-1.008 m 3.42,2.832 c -0.064,-0.008 -0.152005,-0.012 -0.264,-0.012 -0.104004,-0.008 -0.224004,-0.012 -0.36,-0.012 -0.760003,3e-6 -1.328003,0.096 -1.704,0.288 -0.368002,0.184002 -0.552002,0.480002 -0.552,0.888 -2e-6,0.304001 0.103998,0.540001 0.312,0.708 0.215998,0.168001 0.499997,0.252001 0.852,0.252 0.343997,10e-7 0.647996,-0.08 0.912,-0.24 0.271996,-0.159999 0.475996,-0.379999 0.612,-0.66 0.127995,-0.263998 0.191995,-0.667998 0.192,-1.212"
           style=""
           id="path3963" />
        <path
           d="m -17.346688,-81.636 c 0.231998,-0.351995 0.515997,-0.627994 0.852,-0.828 0.343997,-0.199994 0.739996,-0.299994 1.188,-0.3 0.431995,6e-6 0.791995,0.06801 1.08,0.204 0.295994,0.136006 0.531994,0.328006 0.708,0.576 0.175994,0.240005 0.299994,0.528005 0.372,0.864 0.07999,0.336004 0.119993,0.708004 0.12,1.116 l 0,3.504 -1.14,0 0,-3.024 c -5e-6,-0.295997 -0.016,-0.583996 -0.048,-0.864 -0.024,-0.279996 -0.084,-0.523996 -0.18,-0.732 -0.096,-0.207995 -0.240005,-0.375995 -0.432,-0.504 -0.184005,-0.127995 -0.436004,-0.191995 -0.756,-0.192 -0.304004,5e-6 -0.584003,0.08 -0.84,0.24 -0.256003,0.160005 -0.464003,0.372005 -0.624,0.636 -0.096,0.168004 -0.168002,0.372004 -0.216,0.612 -0.048,0.240004 -0.072,0.540003 -0.072,0.9 l 0,2.928 -1.14,0 0,-4.308 c -1e-6,-0.327995 -0.004,-0.647995 -0.012,-0.96 -0.008,-0.311994 -0.024,-0.595994 -0.048,-0.852 l 1.116,0 c 0.016,0.136006 0.028,0.296006 0.036,0.48 0.008,0.176005 0.012,0.344005 0.012,0.504 l 0.024,0"
           style=""
           id="path3965" />
        <path
           d="m -9.4490005,-82.584 1.644,0 0,0.9 -1.644,0 0,2.688 c -2.7e-6,0.240002 0.011997,0.464002 0.036,0.672 0.023997,0.200002 0.071997,0.372001 0.144,0.516 0.071997,0.144001 0.175997,0.256001 0.312,0.336 0.1439967,0.08 0.3319965,0.120001 0.564,0.12 0.2239961,10e-7 0.4439958,-0.048 0.66,-0.144 l 0.036,0.9 c -0.2880041,0.112 -0.6120038,0.168 -0.972,0.168 -0.384003,0 -0.7000027,-0.056 -0.948,-0.168 -0.2480022,-0.112 -0.4440025,-0.268 -0.5880005,-0.468 -0.144001,-0.199999 -0.244001,-0.435999 -0.3,-0.708 -0.048,-0.279998 -0.072,-0.583998 -0.072,-0.912 l 0,-3 -1.404,0 0,-0.9 1.404,0 0,-1.44 1.1280005,-0.384 0,1.824"
           style=""
           id="path3967" />
      </g>
      <g
         style="font-size:12px;font-style:normal;font-variant:normal;font-weight:normal;font-stretch:normal;text-align:start;line-height:125%;letter-spacing:0px;word-spacing:0px;writing-mode:lr-tb;text-anchor:start;fill:#4dd0bc;fill-opacity:1;stroke:none;font-family:Frutiger Neue 55;-inkscape-font-specification:Frutiger Neue 55"
         id="text4145">
        <path
           d="m -77.75,-214.468 c -0.184005,-0.088 -0.368005,-0.15199 -0.552,-0.192 -0.184004,-0.04 -0.380004,-0.06 -0.588,-0.06 -0.304004,1e-5 -0.584003,0.052 -0.84,0.156 -0.256003,0.104 -0.476003,0.248 -0.66,0.432 -0.176002,0.184 -0.316002,0.408 -0.42,0.672 -0.096,0.256 -0.144002,0.544 -0.144,0.864 -2e-6,0.328 0.048,0.628 0.144,0.9 0.103998,0.264 0.243998,0.492 0.42,0.684 0.183997,0.192 0.399997,0.344 0.648,0.456 0.247997,0.104 0.523996,0.156 0.828,0.156 0.223996,0 0.431996,-0.02 0.624,-0.06 0.199995,-0.048 0.415995,-0.128 0.648,-0.24 l 0.096,1.02 c -0.216005,0.088 -0.452005,0.152 -0.708,0.192 -0.256004,0.048 -0.520004,0.072 -0.792,0.072 -0.472003,0 -0.900003,-0.076 -1.284,-0.228 -0.376002,-0.152 -0.704002,-0.364 -0.984,-0.636 -0.272001,-0.28 -0.484001,-0.612 -0.636,-0.996 -0.144001,-0.384 -0.216001,-0.812 -0.216,-1.284 -10e-7,-0.456 0.076,-0.876 0.228,-1.26 0.151999,-0.392 0.363999,-0.72399 0.636,-0.996 0.279998,-0.27999 0.615998,-0.49599 1.008,-0.648 0.399997,-0.15999 0.839997,-0.23999 1.32,-0.24 0.231996,1e-5 0.451996,0.016 0.66,0.048 0.215995,0.032 0.427995,0.092 0.636,0.18 l -0.072,1.008"
           style=""
           id="path3970" />
        <path
           d="m -73.525063,-215.764 c 0.455996,1e-5 0.871996,0.08 1.248,0.24 0.383995,0.16001 0.711995,0.38401 0.984,0.672 0.279994,0.28801 0.495994,0.632 0.648,1.032 0.151994,0.392 0.227994,0.824 0.228,1.296 -6e-6,0.472 -0.08001,0.904 -0.24,1.296 -0.152006,0.384 -0.368006,0.716 -0.648,0.996 -0.272005,0.272 -0.600005,0.488 -0.984,0.648 -0.384004,0.152 -0.808004,0.228 -1.272,0.228 -0.456003,0 -0.876002,-0.076 -1.26,-0.228 -0.384002,-0.16 -0.716001,-0.38 -0.996,-0.66 -0.280001,-0.28 -0.5,-0.612 -0.66,-0.996 -0.152,-0.392 -0.228,-0.82 -0.228,-1.284 0,-0.48 0.076,-0.916 0.228,-1.308 0.16,-0.4 0.379999,-0.74399 0.66,-1.032 0.279999,-0.28799 0.611998,-0.50799 0.996,-0.66 0.391998,-0.15999 0.823997,-0.23999 1.296,-0.24 m -0.048,0.948 c -0.280003,1e-5 -0.540003,0.056 -0.78,0.168 -0.232002,0.11201 -0.432002,0.268 -0.6,0.468 -0.168002,0.2 -0.300002,0.444 -0.396,0.732 -0.096,0.28 -0.144001,0.588 -0.144,0.924 -10e-7,0.336 0.048,0.64 0.144,0.912 0.096,0.272 0.227998,0.508 0.396,0.708 0.175998,0.192 0.383998,0.34 0.624,0.444 0.239997,0.104 0.503997,0.156 0.792,0.156 0.279996,0 0.535996,-0.052 0.768,-0.156 0.239996,-0.112 0.443996,-0.264 0.612,-0.456 0.175995,-0.192 0.311995,-0.424 0.408,-0.696 0.096,-0.272 0.143995,-0.576 0.144,-0.912 -5e-6,-0.344 -0.04801,-0.656 -0.144,-0.936 -0.096,-0.28 -0.232005,-0.52 -0.408,-0.72 -0.176004,-0.2 -0.384004,-0.35599 -0.624,-0.468 -0.240004,-0.11199 -0.504004,-0.16799 -0.792,-0.168"
           style=""
           id="path3972" />
        <path
           d="m -67.356813,-215.584 1.644,0 0,0.9 -1.644,0 0,2.688 c -2e-6,0.24 0.012,0.464 0.036,0.672 0.024,0.2 0.072,0.372 0.144,0.516 0.072,0.144 0.175997,0.256 0.312,0.336 0.143997,0.08 0.331997,0.12 0.564,0.12 0.223996,0 0.443996,-0.048 0.66,-0.144 l 0.036,0.9 c -0.288004,0.112 -0.612003,0.168 -0.972,0.168 -0.384003,0 -0.700002,-0.056 -0.948,-0.168 -0.248002,-0.112 -0.444002,-0.268 -0.588,-0.468 -0.144001,-0.2 -0.244001,-0.436 -0.3,-0.708 -0.048,-0.28 -0.072,-0.584 -0.072,-0.912 l 0,-3 -1.404,0 0,-0.9 1.404,0 0,-1.44 1.128,-0.384 0,1.824"
           style=""
           id="path3974" />
        <path
           d="m -63.996187,-215.248 c 0.287998,-0.17599 0.607998,-0.30399 0.96,-0.384 0.359997,-0.088 0.719997,-0.13199 1.08,-0.132 0.447996,1e-5 0.827996,0.064 1.14,0.192 0.311995,0.12001 0.563995,0.28801 0.756,0.504 0.199994,0.21601 0.343994,0.47201 0.432,0.768 0.08799,0.296 0.131994,0.616 0.132,0.96 -6e-6,0.192 -0.004,0.392 -0.012,0.6 -6e-6,0.208 -6e-6,0.408 0,0.6 -6e-6,0.184 -0.004,0.348 -0.012,0.492 -6e-6,0.136 -6e-6,0.236 0,0.3 -6e-6,0.336 0.004,0.672 0.012,1.008 0.01599,0.336 0.03599,0.616 0.06,0.84 l -1.02,0 c -0.008,-0.048 -0.016,-0.12 -0.024,-0.216 -5e-6,-0.104 -5e-6,-0.2 0,-0.288 -5e-6,-0.08 -5e-6,-0.168 0,-0.264 0.008,-0.096 0.016,-0.188 0.024,-0.276 l -0.024,0 c -0.208005,0.368 -0.480005,0.648 -0.816,0.84 -0.336004,0.192 -0.744003,0.288 -1.224,0.288 -0.648002,0 -1.168002,-0.164 -1.56,-0.492 -0.384001,-0.336 -0.576001,-0.788 -0.576,-1.356 -10e-7,-0.64 0.275999,-1.132 0.828,-1.476 0.551998,-0.344 1.347997,-0.516 2.388,-0.516 0.127996,0 0.267996,0.004 0.42,0.012 0.159995,0 0.307995,0.008 0.444,0.024 l 0,-0.048 c -5e-6,-1.04 -0.520004,-1.55999 -1.56,-1.56 -0.312003,1e-5 -0.624003,0.056 -0.936,0.168 -0.312002,0.10401 -0.592002,0.244 -0.84,0.42 l -0.072,-1.008 m 3.42,2.832 c -0.06401,-0.008 -0.152005,-0.012 -0.264,-0.012 -0.104005,-0.008 -0.224004,-0.012 -0.36,-0.012 -0.760004,0 -1.328003,0.096 -1.704,0.288 -0.368002,0.184 -0.552002,0.48 -0.552,0.888 -2e-6,0.304 0.103998,0.54 0.312,0.708 0.215997,0.168 0.499997,0.252 0.852,0.252 0.343996,0 0.647996,-0.08 0.912,-0.24 0.271996,-0.16 0.475995,-0.38 0.612,-0.66 0.127995,-0.264 0.191995,-0.668 0.192,-1.212"
           style=""
           id="path3976" />
        <path
           d="m -56.357625,-214.636 c 0.231998,-0.35199 0.515998,-0.62799 0.852,-0.828 0.343997,-0.19999 0.739996,-0.29999 1.188,-0.3 0.431996,1e-5 0.791995,0.068 1.08,0.204 0.295995,0.13601 0.531994,0.32801 0.708,0.576 0.175994,0.24001 0.299994,0.528 0.372,0.864 0.07999,0.336 0.119994,0.708 0.12,1.116 l 0,3.504 -1.14,0 0,-3.024 c -5e-6,-0.296 -0.016,-0.584 -0.048,-0.864 -0.02401,-0.28 -0.084,-0.524 -0.18,-0.732 -0.096,-0.208 -0.240005,-0.376 -0.432,-0.504 -0.184004,-0.12799 -0.436004,-0.19199 -0.756,-0.192 -0.304003,1e-5 -0.584003,0.08 -0.84,0.24 -0.256003,0.16 -0.464002,0.372 -0.624,0.636 -0.096,0.168 -0.168002,0.372 -0.216,0.612 -0.048,0.24 -0.072,0.54 -0.072,0.9 l 0,2.928 -1.14,0 0,-4.308 c -1e-6,-0.328 -0.004,-0.648 -0.012,-0.96 -0.008,-0.31199 -0.024,-0.59599 -0.048,-0.852 l 1.116,0 c 0.016,0.13601 0.028,0.29601 0.036,0.48 0.008,0.17601 0.012,0.34401 0.012,0.504 l 0.024,0"
           style=""
           id="path3978" />
        <path
           d="m -47.375938,-214.816 c -0.240003,1e-5 -0.464003,0.056 -0.672,0.168 -0.208003,0.11201 -0.388002,0.268 -0.54,0.468 -0.152002,0.2 -0.272002,0.44 -0.36,0.72 -0.08,0.272 -0.120002,0.568 -0.12,0.888 -2e-6,0.32 0.04,0.612 0.12,0.876 0.08,0.264 0.191998,0.492 0.336,0.684 0.151998,0.184 0.331997,0.328 0.54,0.432 0.207997,0.104 0.439997,0.156 0.696,0.156 0.255996,0 0.491996,-0.056 0.708,-0.168 0.215996,-0.112 0.403995,-0.264 0.564,-0.456 0.159995,-0.192 0.283995,-0.42 0.372,-0.684 0.08799,-0.272 0.131995,-0.564 0.132,-0.876 -5e-6,-0.312 -0.044,-0.6 -0.132,-0.864 -0.08801,-0.272 -0.212005,-0.508 -0.372,-0.708 -0.160005,-0.2 -0.348004,-0.35599 -0.564,-0.468 -0.216004,-0.11199 -0.452004,-0.16799 -0.708,-0.168 m 2.892,-0.804 0,5.868 c -6e-6,0.376 -0.05201,0.736 -0.156,1.08 -0.09601,0.352 -0.260006,0.664 -0.492,0.936 -0.232005,0.272 -0.540005,0.488 -0.924,0.648 -0.384004,0.168 -0.856004,0.252 -1.416,0.252 -0.424003,0 -0.820003,-0.032 -1.188,-0.096 -0.360002,-0.056 -0.744001,-0.16 -1.152,-0.312 l 0.12,-1.128 c 0.383998,0.208 0.747998,0.356 1.092,0.444 0.343997,0.088 0.707997,0.132 1.092,0.132 0.671996,0 1.159996,-0.184 1.464,-0.552 0.303995,-0.368 0.455995,-0.876 0.456,-1.524 -5e-6,-0.104 -5e-6,-0.224 0,-0.36 -5e-6,-0.144 0.008,-0.272 0.024,-0.384 l -0.024,0 c -0.184005,0.312 -0.440005,0.576 -0.768,0.792 -0.328004,0.216 -0.736004,0.324 -1.224,0.324 -0.400003,0 -0.768002,-0.072 -1.104,-0.216 -0.328002,-0.144 -0.612002,-0.348 -0.852,-0.612 -0.240001,-0.272 -0.428001,-0.592 -0.564,-0.96 -0.128001,-0.376 -0.192001,-0.792 -0.192,-1.248 -10e-7,-0.48 0.068,-0.916 0.204,-1.308 0.135999,-0.4 0.323999,-0.73999 0.564,-1.02 0.247998,-0.28799 0.543998,-0.50799 0.888,-0.66 0.343997,-0.15999 0.723997,-0.23999 1.14,-0.24 0.455996,1e-5 0.847996,0.096 1.176,0.288 0.335995,0.18401 0.595995,0.44401 0.78,0.78 l 0.024,0 c -0.016,-0.19199 -0.02401,-0.35199 -0.024,-0.48 -5e-6,-0.13599 -5e-6,-0.28399 0,-0.444 l 1.056,0"
           style=""
           id="path3980" />
        <path
           d="m -41.757125,-212.284 c 0.024,0.624 0.227998,1.108 0.612,1.452 0.383997,0.344 0.887996,0.516 1.512,0.516 0.359995,0 0.675995,-0.04 0.948,-0.12 0.279994,-0.08 0.559994,-0.192 0.84,-0.336 l 0.036,1.044 c -0.544006,0.248 -1.176005,0.372 -1.896,0.372 -0.512004,0 -0.968003,-0.072 -1.368,-0.216 -0.392002,-0.152 -0.724002,-0.368 -0.996,-0.648 -0.272002,-0.288 -0.480001,-0.632 -0.624,-1.032 -0.144001,-0.4 -0.216001,-0.852 -0.216,-1.356 -10e-7,-0.48 0.068,-0.916 0.204,-1.308 0.143999,-0.392 0.343998,-0.72399 0.6,-0.996 0.255998,-0.27199 0.563998,-0.47999 0.924,-0.624 0.359997,-0.15199 0.755996,-0.22799 1.188,-0.228 0.399996,1e-5 0.759995,0.064 1.08,0.192 0.327995,0.12001 0.603994,0.30401 0.828,0.552 0.231994,0.24801 0.407994,0.564 0.528,0.948 0.127993,0.384 0.191993,0.832 0.192,1.344 -7e-6,0.064 -0.004,0.14 -0.012,0.228 -7e-6,0.08 -0.004,0.152 -0.012,0.216 l -4.368,0 m 3.276,-0.876 c -5e-6,-0.592 -0.144005,-1.028 -0.432,-1.308 -0.288005,-0.28799 -0.660004,-0.43199 -1.116,-0.432 -0.456003,1e-5 -0.844003,0.15201 -1.164,0.456 -0.312002,0.304 -0.492002,0.732 -0.54,1.284 l 3.252,0"
           style=""
           id="path3982" />
        <path
           d="m -34.355437,-214.636 c 0.231998,-0.35199 0.515997,-0.62799 0.852,-0.828 0.343997,-0.19999 0.739996,-0.29999 1.188,-0.3 0.431995,1e-5 0.791995,0.068 1.08,0.204 0.295994,0.13601 0.531994,0.32801 0.708,0.576 0.175994,0.24001 0.299994,0.528 0.372,0.864 0.07999,0.336 0.119993,0.708 0.12,1.116 l 0,3.504 -1.14,0 0,-3.024 c -5e-6,-0.296 -0.016,-0.584 -0.048,-0.864 -0.024,-0.28 -0.08401,-0.524 -0.18,-0.732 -0.096,-0.208 -0.240005,-0.376 -0.432,-0.504 -0.184005,-0.12799 -0.436004,-0.19199 -0.756,-0.192 -0.304004,1e-5 -0.584003,0.08 -0.84,0.24 -0.256003,0.16 -0.464003,0.372 -0.624,0.636 -0.096,0.168 -0.168002,0.372 -0.216,0.612 -0.048,0.24 -0.072,0.54 -0.072,0.9 l 0,2.928 -1.14,0 0,-4.308 c -10e-7,-0.328 -0.004,-0.648 -0.012,-0.96 -0.008,-0.31199 -0.024,-0.59599 -0.048,-0.852 l 1.116,0 c 0.016,0.13601 0.028,0.29601 0.036,0.48 0.008,0.17601 0.012,0.34401 0.012,0.504 l 0.024,0"
           style=""
           id="path3984" />
        <path
           d="m -26.367749,-215.584 1.644,0 0,0.9 -1.644,0 0,2.688 c -3e-6,0.24 0.012,0.464 0.036,0.672 0.024,0.2 0.072,0.372 0.144,0.516 0.072,0.144 0.175997,0.256 0.312,0.336 0.143996,0.08 0.331996,0.12 0.564,0.12 0.223996,0 0.443995,-0.048 0.66,-0.144 l 0.036,0.9 c -0.288004,0.112 -0.612004,0.168 -0.972,0.168 -0.384003,0 -0.700003,-0.056 -0.948,-0.168 -0.248003,-0.112 -0.444002,-0.268 -0.588,-0.468 -0.144002,-0.2 -0.244002,-0.436 -0.3,-0.708 -0.048,-0.28 -0.072,-0.584 -0.072,-0.912 l 0,-3 -1.404,0 0,-0.9 1.404,0 0,-1.44 1.128,-0.384 0,1.824"
           style=""
           id="path3986" />
      </g>
      <g
         style="font-size:12px;font-style:normal;font-variant:normal;font-weight:normal;font-stretch:normal;text-align:start;line-height:125%;letter-spacing:0px;word-spacing:0px;writing-mode:lr-tb;text-anchor:start;fill:#ff0098;fill-opacity:1;stroke:none;font-family:Frutiger Neue 55;-inkscape-font-specification:Frutiger Neue 55"
         id="text4149">
        <path
           d="m -149.10284,-156.468 c -0.184,-0.088 -0.368,-0.15199 -0.552,-0.192 -0.184,-0.04 -0.38,-0.06 -0.588,-0.06 -0.304,1e-5 -0.584,0.052 -0.84,0.156 -0.256,0.104 -0.476,0.248 -0.66,0.432 -0.176,0.184 -0.316,0.408 -0.42,0.672 -0.096,0.256 -0.144,0.544 -0.144,0.864 0,0.328 0.048,0.628 0.144,0.9 0.104,0.264 0.244,0.492 0.42,0.684 0.184,0.192 0.4,0.344 0.648,0.456 0.248,0.104 0.524,0.156 0.828,0.156 0.224,0 0.432,-0.02 0.624,-0.06 0.2,-0.048 0.416,-0.128 0.648,-0.24 l 0.096,1.02 c -0.216,0.088 -0.452,0.152 -0.708,0.192 -0.256,0.048 -0.52,0.072 -0.792,0.072 -0.472,0 -0.9,-0.076 -1.284,-0.228 -0.376,-0.152 -0.704,-0.364 -0.984,-0.636 -0.272,-0.28 -0.484,-0.612 -0.636,-0.996 -0.144,-0.384 -0.216,-0.812 -0.216,-1.284 0,-0.456 0.076,-0.876 0.228,-1.26 0.152,-0.392 0.364,-0.72399 0.636,-0.996 0.28,-0.27999 0.616,-0.49599 1.008,-0.648 0.4,-0.15999 0.84,-0.23999 1.32,-0.24 0.232,1e-5 0.452,0.016 0.66,0.048 0.216,0.032 0.428,0.092 0.636,0.18 l -0.072,1.008"
           style=""
           id="path3989" />
        <path
           d="m -144.8779,-157.764 c 0.45599,1e-5 0.87199,0.08 1.248,0.24 0.38399,0.16001 0.71199,0.38401 0.984,0.672 0.27999,0.28801 0.49599,0.632 0.648,1.032 0.15199,0.392 0.22799,0.824 0.228,1.296 -1e-5,0.472 -0.08,0.904 -0.24,1.296 -0.15201,0.384 -0.36801,0.716 -0.648,0.996 -0.27201,0.272 -0.60001,0.488 -0.984,0.648 -0.38401,0.152 -0.80801,0.228 -1.272,0.228 -0.45601,0 -0.87601,-0.076 -1.26,-0.228 -0.384,-0.16 -0.716,-0.38 -0.996,-0.66 -0.28,-0.28 -0.5,-0.612 -0.66,-0.996 -0.152,-0.392 -0.228,-0.82 -0.228,-1.284 0,-0.48 0.076,-0.916 0.228,-1.308 0.16,-0.4 0.38,-0.74399 0.66,-1.032 0.28,-0.28799 0.612,-0.50799 0.996,-0.66 0.39199,-0.15999 0.82399,-0.23999 1.296,-0.24 m -0.048,0.948 c -0.28001,1e-5 -0.54001,0.056 -0.78,0.168 -0.23201,0.11201 -0.432,0.268 -0.6,0.468 -0.168,0.2 -0.3,0.444 -0.396,0.732 -0.096,0.28 -0.144,0.588 -0.144,0.924 0,0.336 0.048,0.64 0.144,0.912 0.096,0.272 0.228,0.508 0.396,0.708 0.176,0.192 0.38399,0.34 0.624,0.444 0.23999,0.104 0.50399,0.156 0.792,0.156 0.27999,0 0.53599,-0.052 0.768,-0.156 0.23999,-0.112 0.44399,-0.264 0.612,-0.456 0.17599,-0.192 0.31199,-0.424 0.408,-0.696 0.096,-0.272 0.14399,-0.576 0.144,-0.912 -1e-5,-0.344 -0.048,-0.656 -0.144,-0.936 -0.096,-0.28 -0.23201,-0.52 -0.408,-0.72 -0.17601,-0.2 -0.38401,-0.35599 -0.624,-0.468 -0.24001,-0.11199 -0.50401,-0.16799 -0.792,-0.168"
           style=""
           id="path3991" />
        <path
           d="m -140.66365,-152.676 c 0.232,0.136 0.472,0.236 0.72,0.3 0.256,0.064 0.512,0.096 0.768,0.096 0.336,0 0.61199,-0.072 0.828,-0.216 0.21599,-0.152 0.32399,-0.36 0.324,-0.624 -1e-5,-0.12 -0.024,-0.224 -0.072,-0.312 -0.04,-0.096 -0.11201,-0.188 -0.216,-0.276 -0.096,-0.088 -0.22401,-0.176 -0.384,-0.264 -0.16,-0.096 -0.36,-0.2 -0.6,-0.312 -0.256,-0.12 -0.472,-0.24 -0.648,-0.36 -0.176,-0.12 -0.32,-0.248 -0.432,-0.384 -0.112,-0.136 -0.196,-0.28 -0.252,-0.432 -0.048,-0.16 -0.072,-0.336 -0.072,-0.528 0,-0.272 0.052,-0.51599 0.156,-0.732 0.104,-0.22399 0.252,-0.41199 0.444,-0.564 0.192,-0.15999 0.416,-0.27999 0.672,-0.36 0.264,-0.08 0.552,-0.11999 0.864,-0.12 0.26399,1e-5 0.51999,0.024 0.768,0.072 0.24799,0.04 0.46399,0.10001 0.648,0.18 l -0.096,0.948 c -0.22401,-0.11199 -0.44401,-0.18799 -0.66,-0.228 -0.20801,-0.048 -0.42401,-0.072 -0.648,-0.072 -0.28,1e-5 -0.52,0.068 -0.72,0.204 -0.192,0.12801 -0.288,0.32 -0.288,0.576 0,0.248 0.088,0.444 0.264,0.588 0.184,0.136 0.472,0.288 0.864,0.456 0.56799,0.248 0.96799,0.516 1.2,0.804 0.23199,0.28 0.34799,0.62 0.348,1.02 -1e-5,0.304 -0.056,0.572 -0.168,0.804 -0.10401,0.232 -0.25601,0.428 -0.456,0.588 -0.19201,0.152 -0.42401,0.268 -0.696,0.348 -0.27201,0.08 -0.568,0.12 -0.888,0.12 -0.312,0 -0.604,-0.024 -0.876,-0.072 -0.264,-0.048 -0.524,-0.124 -0.78,-0.228 l 0.084,-1.02"
           style=""
           id="path3993" />
        <path
           d="m -134.67153,-154.284 c 0.024,0.624 0.228,1.108 0.612,1.452 0.384,0.344 0.888,0.516 1.512,0.516 0.36,0 0.676,-0.04 0.948,-0.12 0.28,-0.08 0.56,-0.192 0.84,-0.336 l 0.036,1.044 c -0.544,0.248 -1.176,0.372 -1.896,0.372 -0.512,0 -0.968,-0.072 -1.368,-0.216 -0.392,-0.152 -0.724,-0.368 -0.996,-0.648 -0.272,-0.288 -0.48,-0.632 -0.624,-1.032 -0.144,-0.4 -0.216,-0.852 -0.216,-1.356 0,-0.48 0.068,-0.916 0.204,-1.308 0.144,-0.392 0.344,-0.72399 0.6,-0.996 0.256,-0.27199 0.564,-0.47999 0.924,-0.624 0.36,-0.15199 0.756,-0.22799 1.188,-0.228 0.4,1e-5 0.76,0.064 1.08,0.192 0.328,0.12001 0.604,0.30401 0.828,0.552 0.232,0.24801 0.408,0.564 0.528,0.948 0.128,0.384 0.192,0.832 0.192,1.344 0,0.064 -0.004,0.14 -0.012,0.228 0,0.08 -0.004,0.152 -0.012,0.216 l -4.368,0 m 3.276,-0.876 c 0,-0.592 -0.144,-1.028 -0.432,-1.308 -0.288,-0.28799 -0.66,-0.43199 -1.116,-0.432 -0.456,1e-5 -0.844,0.15201 -1.164,0.456 -0.312,0.304 -0.492,0.732 -0.54,1.284 l 3.252,0"
           style=""
           id="path3995" />
        <path
           d="m -124.72784,-156.468 c -0.184,-0.088 -0.368,-0.15199 -0.552,-0.192 -0.184,-0.04 -0.38,-0.06 -0.588,-0.06 -0.304,1e-5 -0.584,0.052 -0.84,0.156 -0.256,0.104 -0.476,0.248 -0.66,0.432 -0.176,0.184 -0.316,0.408 -0.42,0.672 -0.096,0.256 -0.144,0.544 -0.144,0.864 0,0.328 0.048,0.628 0.144,0.9 0.104,0.264 0.244,0.492 0.42,0.684 0.184,0.192 0.4,0.344 0.648,0.456 0.248,0.104 0.524,0.156 0.828,0.156 0.224,0 0.432,-0.02 0.624,-0.06 0.2,-0.048 0.416,-0.128 0.648,-0.24 l 0.096,1.02 c -0.216,0.088 -0.452,0.152 -0.708,0.192 -0.256,0.048 -0.52,0.072 -0.792,0.072 -0.472,0 -0.9,-0.076 -1.284,-0.228 -0.376,-0.152 -0.704,-0.364 -0.984,-0.636 -0.272,-0.28 -0.484,-0.612 -0.636,-0.996 -0.144,-0.384 -0.216,-0.812 -0.216,-1.284 0,-0.456 0.076,-0.876 0.228,-1.26 0.152,-0.392 0.364,-0.72399 0.636,-0.996 0.28,-0.27999 0.616,-0.49599 1.008,-0.648 0.4,-0.15999 0.84,-0.23999 1.32,-0.24 0.232,1e-5 0.452,0.016 0.66,0.048 0.216,0.032 0.428,0.092 0.636,0.18 l -0.072,1.008"
           style=""
           id="path3997" />
        <path
           d="m -123.0109,-157.248 c 0.288,-0.17599 0.608,-0.30399 0.96,-0.384 0.35999,-0.088 0.71999,-0.13199 1.08,-0.132 0.44799,1e-5 0.82799,0.064 1.14,0.192 0.31199,0.12001 0.56399,0.28801 0.756,0.504 0.19999,0.21601 0.34399,0.47201 0.432,0.768 0.088,0.296 0.13199,0.616 0.132,0.96 -10e-6,0.192 -0.004,0.392 -0.012,0.6 -10e-6,0.208 -10e-6,0.408 0,0.6 -10e-6,0.184 -0.004,0.348 -0.012,0.492 -1e-5,0.136 -1e-5,0.236 0,0.3 -1e-5,0.336 0.004,0.672 0.012,1.008 0.016,0.336 0.036,0.616 0.06,0.84 l -1.02,0 c -0.008,-0.048 -0.016,-0.12 -0.024,-0.216 -1e-5,-0.104 -1e-5,-0.2 0,-0.288 -1e-5,-0.08 -1e-5,-0.168 0,-0.264 0.008,-0.096 0.016,-0.188 0.024,-0.276 l -0.024,0 c -0.20801,0.368 -0.48001,0.648 -0.816,0.84 -0.33601,0.192 -0.74401,0.288 -1.224,0.288 -0.648,0 -1.168,-0.164 -1.56,-0.492 -0.384,-0.336 -0.576,-0.788 -0.576,-1.356 0,-0.64 0.276,-1.132 0.828,-1.476 0.552,-0.344 1.34799,-0.516 2.388,-0.516 0.12799,0 0.26799,0.004 0.42,0.012 0.15999,0 0.30799,0.008 0.444,0.024 l 0,-0.048 c -10e-6,-1.04 -0.52001,-1.55999 -1.56,-1.56 -0.31201,1e-5 -0.624,0.056 -0.936,0.168 -0.312,0.10401 -0.592,0.244 -0.84,0.42 l -0.072,-1.008 m 3.42,2.832 c -0.064,-0.008 -0.15201,-0.012 -0.264,-0.012 -0.10401,-0.008 -0.22401,-0.012 -0.36,-0.012 -0.76001,0 -1.32801,0.096 -1.704,0.288 -0.368,0.184 -0.552,0.48 -0.552,0.888 0,0.304 0.104,0.54 0.312,0.708 0.216,0.168 0.49999,0.252 0.852,0.252 0.34399,0 0.64799,-0.08 0.912,-0.24 0.27199,-0.16 0.47599,-0.38 0.612,-0.66 0.12799,-0.264 0.19199,-0.668 0.192,-1.212"
           style=""
           id="path3999" />
        <path
           d="m -115.37234,-156.636 c 0.232,-0.35199 0.516,-0.62799 0.852,-0.828 0.344,-0.19999 0.74,-0.29999 1.188,-0.3 0.432,1e-5 0.792,0.068 1.08,0.204 0.29599,0.13601 0.53199,0.32801 0.708,0.576 0.17599,0.24001 0.29999,0.528 0.372,0.864 0.08,0.336 0.11999,0.708 0.12,1.116 l 0,3.504 -1.14,0 0,-3.024 c -1e-5,-0.296 -0.016,-0.584 -0.048,-0.864 -0.024,-0.28 -0.084,-0.524 -0.18,-0.732 -0.096,-0.208 -0.24,-0.376 -0.432,-0.504 -0.184,-0.12799 -0.436,-0.19199 -0.756,-0.192 -0.304,1e-5 -0.584,0.08 -0.84,0.24 -0.256,0.16 -0.464,0.372 -0.624,0.636 -0.096,0.168 -0.168,0.372 -0.216,0.612 -0.048,0.24 -0.072,0.54 -0.072,0.9 l 0,2.928 -1.14,0 0,-4.308 c 0,-0.328 -0.004,-0.648 -0.012,-0.96 -0.008,-0.31199 -0.024,-0.59599 -0.048,-0.852 l 1.116,0 c 0.016,0.13601 0.028,0.29601 0.036,0.48 0.008,0.17601 0.012,0.34401 0.012,0.504 l 0.024,0"
           style=""
           id="path4001" />
        <path
           d="m -107.38465,-157.584 1.644,0 0,0.9 -1.644,0 0,2.688 c 0,0.24 0.012,0.464 0.036,0.672 0.024,0.2 0.072,0.372 0.144,0.516 0.072,0.144 0.17599,0.256 0.312,0.336 0.14399,0.08 0.33199,0.12 0.564,0.12 0.22399,0 0.44399,-0.048 0.66,-0.144 l 0.036,0.9 c -0.28801,0.112 -0.61201,0.168 -0.972,0.168 -0.38401,0 -0.70001,-0.056 -0.948,-0.168 -0.248,-0.112 -0.444,-0.268 -0.588,-0.468 -0.144,-0.2 -0.244,-0.436 -0.3,-0.708 -0.048,-0.28 -0.072,-0.584 -0.072,-0.912 l 0,-3 -1.404,0 0,-0.9 1.404,0 0,-1.44 1.128,-0.384 0,1.824"
           style=""
           id="path4003" />
      </g>
    </g>
  </g>
</svg>
